<svg width="200" height="200" viewBox="0 0 200 200" fill="none" xmlns="http://www.w3.org/2000/svg">
  <g id="c604f559">
    <circle id="5b536866" cx="100" cy="100" r="100" fill="#0039A6"></circle>
    <path id="02eaa293" d="M107.161 42.9091H129.959V118.974C129.959 126.006 128.379 132.114 125.218 137.298C122.093 142.483 117.743 146.478 112.168 149.283C106.592 152.089 100.112 153.491 92.7251 153.491C86.1555 153.491 80.1896 152.337 74.8274 150.029C69.5007 147.685 65.2749 144.134 62.1499 139.376C59.0249 134.582 57.4801 128.562 57.5156 121.318H80.4737C80.5447 124.195 81.1307 126.663 82.2315 128.722C83.3679 130.746 84.9126 132.309 86.8658 133.41C88.8544 134.475 91.1982 135.008 93.897 135.008C96.7379 135.008 99.1349 134.404 101.088 133.197C103.077 131.954 104.586 130.143 105.616 127.763C106.646 125.384 107.161 122.455 107.161 118.974V42.9091Z" fill="white"></path>
  </g>
</svg>