<svg width="200" height="200" viewBox="0 0 200 200" fill="none" xmlns="http://www.w3.org/2000/svg">
  <g id="481cd9a1">
    <circle id="4f9dfb66" cx="100" cy="100" r="100" fill="#00933C"></circle>
    <path id="1fcc2b86" d="M152.73 97.4545C152.73 109.351 150.475 119.472 145.965 127.817C141.491 136.162 135.383 142.536 127.641 146.94C119.935 151.308 111.271 153.491 101.647 153.491C91.9524 153.491 83.2521 151.29 75.5462 146.886C67.8402 142.483 61.75 136.109 57.2756 127.763C52.8011 119.418 50.5639 109.315 50.5639 97.4545C50.5639 85.5582 52.8011 75.4375 57.2756 67.0923C61.75 58.7472 67.8402 52.3906 75.5462 48.0227C83.2521 43.6193 91.9524 41.4176 101.647 41.4176C111.271 41.4176 119.935 43.6193 127.641 48.0227C135.383 52.3906 141.491 58.7472 145.965 67.0923C150.475 75.4375 152.73 85.5582 152.73 97.4545ZM129.346 97.4545C129.346 89.7486 128.192 83.25 125.884 77.9588C123.611 72.6676 120.397 68.6548 116.242 65.9205C112.087 63.1861 107.222 61.8189 101.647 61.8189C96.0717 61.8189 91.2067 63.1861 87.0518 65.9205C82.897 68.6548 79.6655 72.6676 77.3572 77.9588C75.0845 83.25 73.9482 89.7486 73.9482 97.4545C73.9482 105.161 75.0845 111.659 77.3572 116.95C79.6655 122.241 82.897 126.254 87.0518 128.989C91.2067 131.723 96.0717 133.09 101.647 133.09C107.222 133.09 112.087 131.723 116.242 128.989C120.397 126.254 123.611 122.241 125.884 116.95C128.192 111.659 129.346 105.161 129.346 97.4545Z" fill="white"></path>
  </g>
</svg>