<svg width="200" height="200" viewBox="0 0 200 200" fill="none" xmlns="http://www.w3.org/2000/svg">
  <g id="72b77286">
    <circle id="371c6989" cx="100" cy="100" r="100" fill="#EE352E"></circle>
    <path id="6856c65a" d="M63.4815 152V42.9091H106.521C114.76 42.9091 121.791 44.3828 127.615 47.3303C133.474 50.2422 137.931 54.3793 140.985 59.7415C144.075 65.0682 145.619 71.3359 145.619 78.5447C145.619 85.7891 144.057 92.0213 140.932 97.2415C137.807 102.426 133.279 106.403 127.349 109.173C121.454 111.943 114.316 113.328 105.935 113.328H77.1179V94.7912H102.207C106.61 94.7912 110.268 94.1875 113.18 92.9801C116.092 91.7727 118.258 89.9616 119.678 87.5469C121.134 85.1321 121.862 82.1314 121.862 78.5447C121.862 74.9226 121.134 71.8686 119.678 69.3828C118.258 66.897 116.074 65.0149 113.126 63.7365C110.214 62.4226 106.539 61.7656 102.1 61.7656H86.5462V152H63.4815ZM122.395 102.355L149.508 152H124.046L97.5192 102.355H122.395Z" fill="white"></path>
  </g>
</svg>