<svg width="200" height="200" viewBox="0 0 200 200" fill="none" xmlns="http://www.w3.org/2000/svg">
  <g id="399dfb08">
    <circle id="b481956d" cx="100" cy="100" r="100" fill="#FCCC0A"></circle>
    <path id="f09157dc" d="M149.735 81.1016H126.404C125.978 78.0831 125.108 75.402 123.794 73.0582C122.48 70.679 120.793 68.6548 118.734 66.9858C116.674 65.3168 114.295 64.0383 111.596 63.1506C108.933 62.2628 106.038 61.8189 102.913 61.8189C97.267 61.8189 92.3487 63.2216 88.1584 66.027C83.968 68.7969 80.7188 72.8452 78.4105 78.1719C76.1023 83.4631 74.9482 89.8906 74.9482 97.4545C74.9482 105.232 76.1023 111.766 78.4105 117.057C80.7543 122.348 84.0213 126.343 88.2116 129.042C92.402 131.741 97.2493 133.09 102.754 133.09C105.843 133.09 108.702 132.682 111.33 131.865C113.993 131.048 116.354 129.859 118.414 128.296C120.474 126.698 122.178 124.763 123.528 122.49C124.913 120.217 125.871 117.625 126.404 114.713L149.735 114.82C149.131 119.827 147.622 124.656 145.207 129.308C142.828 133.925 139.614 138.062 135.566 141.719C131.553 145.342 126.759 148.218 121.184 150.349C115.644 152.444 109.376 153.491 102.381 153.491C92.6506 153.491 83.9503 151.29 76.2798 146.886C68.6449 142.483 62.608 136.109 58.169 127.763C53.7656 119.418 51.5639 109.315 51.5639 97.4545C51.5639 85.5582 53.8011 75.4375 58.2756 67.0923C62.75 58.7472 68.8224 52.3906 76.4929 48.0227C84.1634 43.6193 92.7926 41.4176 102.381 41.4176C108.702 41.4176 114.561 42.3054 119.959 44.081C125.392 45.8565 130.204 48.4489 134.394 51.8579C138.585 55.2315 141.994 59.3686 144.621 64.2692C147.285 69.1697 148.989 74.7805 149.735 81.1016Z" fill="#1E1E1E"></path>
  </g>
</svg>