<svg width="200" height="200" viewBox="0 0 200 200" fill="none" xmlns="http://www.w3.org/2000/svg">
  <g id="24477a77">
    <circle id="3a0dee9d" cx="100" cy="100" r="100" fill="#0039A6"></circle>
    <path id="e71d90a2" d="M63.4815 152V42.9091H106.521C114.795 42.9091 121.844 44.4893 127.668 47.6499C133.492 50.7749 137.931 55.125 140.985 60.7003C144.075 66.2401 145.619 72.6321 145.619 79.8764C145.619 87.1207 144.057 93.5128 140.932 99.0526C137.807 104.592 133.279 108.907 127.349 111.996C121.454 115.086 114.316 116.631 105.935 116.631H78.5028V98.147H102.207C106.646 98.147 110.303 97.3835 113.18 95.8565C116.092 94.294 118.258 92.1456 119.678 89.4112C121.134 86.6413 121.862 83.4631 121.862 79.8764C121.862 76.2543 121.134 73.0937 119.678 70.3949C118.258 67.6605 116.092 65.5476 113.18 64.0561C110.268 62.5291 106.575 61.7656 102.1 61.7656H86.5462V152H63.4815Z" fill="white"></path>
  </g>
</svg>