<svg width="3657" height="254" viewBox="0 0 3657 254" fill="none" xmlns="http://www.w3.org/2000/svg">
  <g id="838e4c18">
    <g id="7a8cc803">
      <circle id="439b4c08" cx="2178" cy="190" r="30" fill="black"></circle>
      <circle id="27d4c56b" cx="2067" cy="190" r="30" fill="black"></circle>
    </g>
    <g id="021fbdcd">
      <g id="45ba6e06">
        <circle id="8f85a97a" cx="1585" cy="190" r="30" fill="black"></circle>
        <circle id="8c94932d" cx="1474" cy="190" r="30" fill="black"></circle>
      </g>
      <g id="5c581938">
        <rect id="72fbef39" x="776" width="608" height="200" rx="50" fill="#C2C2C2"></rect>
        <g id="854a0aef">
          <circle id="bd4212d0" cx="1306" cy="190" r="30" fill="black"></circle>
          <circle id="de3a3c16" cx="1195" cy="190" r="30" fill="black"></circle>
        </g>
        <g id="1dfe0e64">
          <circle id="ba4997d0" cx="961" cy="190" r="30" fill="black"></circle>
          <circle id="68b6e2e7" cx="850" cy="190" r="30" fill="black"></circle>
        </g>
        <path id="72bf3ccd" d="M806 123.5C806 121.015 808.015 119 810.5 119H1351.5C1353.99 119 1356 121.015 1356 123.5V127C1356 127.552 1355.55 128 1355 128H806V123.5Z" fill="#0E0064"></path>
        <path id="af86f8d1" d="M806 130.25H1356V131.75C1356 133.407 1354.66 134.75 1353 134.75H809C807.343 134.75 806 133.407 806 131.75V130.25Z" fill="#A68C00"></path>
        <path id="43dca96b" d="M788.825 18.0052C798.324 6.59696 812.402 0 827.248 0H1333.4C1347.77 0 1361.44 6.18171 1370.93 16.9686L1378 25H783L788.825 18.0052Z" fill="#B8B8B8"></path>
        <path id="d50b61ed" d="M776 150H1384V150C1384 177.614 1361.61 200 1334 200H826C798.386 200 776 177.614 776 150V150Z" fill="#908E8E"></path>
        <g id="813490fc">
          <rect id="e1547988" x="1230" y="47" width="120" height="50" rx="15" fill="#3D3B3B"></rect>
          <rect id="412b88df" x="1090" y="47" width="120" height="50" rx="15" fill="#3D3B3B"></rect>
          <rect id="ec5449d4" x="950" y="47" width="120" height="50" rx="15" fill="#3D3B3B"></rect>
          <rect id="39a31481" x="810" y="47" width="120" height="50" rx="15" fill="#3D3B3B"></rect>
        </g>
      </g>
      <g id="cf74e4df">
        <g id="ab2aced3">
          <circle id="445ae9f9" cx="3428" cy="190" r="30" fill="black"></circle>
          <circle id="41b3aa99" cx="3317" cy="190" r="30" fill="black"></circle>
        </g>
        <g id="272ec3e3">
          <circle id="650277ec" cx="3083" cy="190" r="30" fill="black"></circle>
          <circle id="d85e6c60" cx="2972" cy="190" r="30" fill="black"></circle>
        </g>
        <path id="8e3b8051" d="M3535.48 98.4512C3554.55 137.124 3535.18 183.741 3494.32 197.512V197.512C3489.43 199.16 3484.3 200 3479.14 200L2948 200C2920.39 200 2898 177.614 2898 150V50C2898 22.3858 2920.39 5.80439e-07 2948 1.29645e-06L3455.84 1.44643e-05C3474.88 1.49579e-05 3492.27 10.8121 3500.69 27.8876L3535.48 98.4512Z" fill="#C2C2C2"></path>
        <path id="4af3e898" d="M2898 120H3443.5C3445.99 120 3448 122.015 3448 124.5V128C3448 128.552 3447.55 129 3447 129H2898V120Z" fill="#0E0064"></path>
        <path id="146abb71" d="M2898 130.75H3448V132.25C3448 133.907 3446.66 135.25 3445 135.25H2898V130.75Z" fill="#A68C00"></path>
        <path id="8d73cfe8" d="M2910.08 18.679C2919.57 6.86945 2933.9 0 2949.05 0H3458V25H2905L2910.08 18.679Z" fill="#B8B8B8"></path>
        <line id="13517fa3" x1="3460" x2="3460" y2="200" stroke="#828181" stroke-width="4"></line>
        <path id="cae3cb36" d="M2898 150H3458V200H2948C2920.39 200 2898 177.614 2898 150V150Z" fill="#908E8E"></path>
        <path id="ad95c240" d="M3499.5 25.5L3534 95H3519.61C3513.75 95 3508.43 91.5924 3505.98 86.2734L3486.99 45.0293C3482.79 35.906 3489.46 25.5 3499.5 25.5V25.5Z" fill="#3D3B3B"></path>
        <g id="7a22ad7d">
          <rect id="d198ad06" x="3328" y="45" width="120" height="50" rx="15" fill="#3D3B3B"></rect>
          <rect id="1a5b9a4f" x="3188" y="45" width="120" height="50" rx="15" fill="#3D3B3B"></rect>
          <rect id="8fd73f4b" x="3048" y="45" width="120" height="50" rx="15" fill="#3D3B3B"></rect>
          <rect id="382b145e" x="2908" y="45" width="120" height="50" rx="15" fill="#3D3B3B"></rect>
        </g>
        <g id="f1b768bd" filter="url(#d2e1d4d5)">
          <path d="M3513 129C3513 123.477 3517.48 119 3523 119H3542.42L3543 129.5L3542.42 140H3523C3517.48 140 3513 135.523 3513 130V129Z" fill="#FCB750"></path>
        </g>
      </g>
      <g id="1e9da8db">
        <g id="1e31a097">
          <circle id="ae84c760" cx="30" cy="30" r="30" transform="matrix(-1 0 0 1 258.5 160)" fill="black"></circle>
          <circle id="ace05b27" cx="30" cy="30" r="30" transform="matrix(-1 0 0 1 369.5 160)" fill="black"></circle>
        </g>
        <g id="1f08f11b">
          <circle id="7ed437aa" cx="30" cy="30" r="30" transform="matrix(-1 0 0 1 603.5 160)" fill="black"></circle>
          <circle id="778acb17" cx="30" cy="30" r="30" transform="matrix(-1 0 0 1 714.5 160)" fill="black"></circle>
        </g>
        <path id="fa25fae9" d="M121.02 98.4512C101.95 137.124 121.32 183.741 162.181 197.512V197.512C167.071 199.16 172.196 200 177.356 200L708.5 200C736.114 200 758.5 177.614 758.5 150V50C758.5 22.3858 736.114 5.80439e-07 708.5 1.29645e-06L200.658 1.44643e-05C181.62 1.49579e-05 164.233 10.8121 155.814 27.8876L121.02 98.4512Z" fill="#C2C2C2"></path>
        <path id="4404527b" d="M758.5 120H213C210.515 120 208.5 122.015 208.5 124.5V128C208.5 128.552 208.948 129 209.5 129H758.5V120Z" fill="#0E0064"></path>
        <path id="3d2737bc" d="M758.5 130.75H208.5V132.25C208.5 133.907 209.843 135.25 211.5 135.25H758.5V130.75Z" fill="#A68C00"></path>
        <path id="3ee969de" d="M746.42 18.679C736.93 6.86945 722.596 0 707.446 0H198.5V25H751.5L746.42 18.679Z" fill="#B8B8B8"></path>
        <line id="14d15251" y1="-2" x2="200" y2="-2" transform="matrix(0 1 1 0 198.5 0)" stroke="#828181" stroke-width="4"></line>
        <path id="cac87477" d="M758.5 150H198.5V200H708.5C736.114 200 758.5 177.614 758.5 150V150Z" fill="#908E8E"></path>
        <path id="de5db1b5" d="M157 25.5L122.5 95H136.893C142.749 95 148.069 91.5924 150.518 86.2734L169.508 45.0293C173.709 35.906 167.044 25.5 157 25.5V25.5Z" fill="#3D3B3B"></path>
        <g id="881a682c">
          <rect id="03c406ac" width="120" height="50" rx="15" transform="matrix(-1 0 0 1 328.5 45)" fill="#3D3B3B"></rect>
          <rect id="be1a103d" width="120" height="50" rx="15" transform="matrix(-1 0 0 1 468.5 45)" fill="#3D3B3B"></rect>
          <rect id="4adcff25" width="120" height="50" rx="15" transform="matrix(-1 0 0 1 608.5 45)" fill="#3D3B3B"></rect>
          <rect id="052835d6" width="120" height="50" rx="15" transform="matrix(-1 0 0 1 748.5 45)" fill="#3D3B3B"></rect>
        </g>
        <g id="df4183d4" filter="url(#f8b35122)">
          <path d="M143.5 129C143.5 123.477 139.023 119 133.5 119H114.077L113.5 129.5L114.077 140H133.5C139.023 140 143.5 135.523 143.5 130V129Z" fill="#FC6F50"></path>
        </g>
      </g>
      <g id="50f6a256">
        <rect id="9b58735d" x="2272" width="608" height="200" rx="50" fill="#C2C2C2"></rect>
        <g id="c90b4d9e">
          <circle id="96ea72b9" cx="2802" cy="190" r="30" fill="black"></circle>
          <circle id="69722b24" cx="2691" cy="190" r="30" fill="black"></circle>
        </g>
        <g id="13822c5f">
          <circle id="5dfbc9cc" cx="2457" cy="190" r="30" fill="black"></circle>
          <circle id="954f6ed0" cx="2346" cy="190" r="30" fill="black"></circle>
        </g>
        <path id="4bb72ad2" d="M2302 123.5C2302 121.015 2304.01 119 2306.5 119H2847.5C2849.99 119 2852 121.015 2852 123.5V127C2852 127.552 2851.55 128 2851 128H2302V123.5Z" fill="#0E0064"></path>
        <path id="dbebc6ac" d="M2302 130.25H2852V131.75C2852 133.407 2850.66 134.75 2849 134.75H2305C2303.34 134.75 2302 133.407 2302 131.75V130.25Z" fill="#A68C00"></path>
        <path id="c7737652" d="M2284.82 18.0052C2294.32 6.59696 2308.4 0 2323.25 0H2829.4C2843.77 0 2857.44 6.18171 2866.93 16.9686L2874 25H2279L2284.82 18.0052Z" fill="#B8B8B8"></path>
        <path id="c45df3af" d="M2272 150H2880V150C2880 177.614 2857.61 200 2830 200H2322C2294.39 200 2272 177.614 2272 150V150Z" fill="#908E8E"></path>
        <g id="f411fd16">
          <rect id="4a74e570" x="2726" y="47" width="120" height="50" rx="15" fill="#3D3B3B"></rect>
          <rect id="5f80d5f9" x="2586" y="47" width="120" height="50" rx="15" fill="#3D3B3B"></rect>
          <rect id="03183441" x="2446" y="47" width="120" height="50" rx="15" fill="#3D3B3B"></rect>
          <rect id="97777014" x="2306" y="47" width="120" height="50" rx="15" fill="#3D3B3B"></rect>
        </g>
      </g>
      <g id="b9ce3a6f">
        <rect id="5bce033d" x="1402" width="852.12" height="200" rx="50" fill="#C2C2C2"></rect>
        <path id="633a3be0" d="M1444.05 123.5C1444.05 121.015 1446.06 119 1448.55 119H2210.38C2212.86 119 2214.88 121.015 2214.88 123.5V127C2214.88 127.552 2214.43 128 2213.88 128H1444.05V123.5Z" fill="#0E0064"></path>
        <path id="2ede997f" d="M1444.05 130.25H2214.88V131.75C2214.88 133.407 2213.53 134.75 2211.88 134.75H1447.05C1445.39 134.75 1444.05 133.407 1444.05 131.75V130.25Z" fill="#A68C00"></path>
        <path id="01ae2d3d" d="M1426.94 12.0321C1436.01 4.26769 1447.55 0 1459.48 0H2197.15C2208.62 0 2219.74 3.94087 2228.64 11.1622L2245.71 25H1411.81L1426.94 12.0321Z" fill="#B8B8B8"></path>
        <path id="f0440944" d="M1402 150H2254.12V150C2254.12 177.614 2231.73 200 2204.12 200H1452C1424.39 200 1402 177.614 1402 150V150Z" fill="#908E8E"></path>
      </g>
    </g>
    <path id="5523c3e2" d="M1484.56 89.8C1486.21 89.8 1487.57 89.64 1488.64 89.32C1489.76 88.9467 1490.64 88.4667 1491.28 87.88C1491.92 87.24 1492.35 86.5467 1492.56 85.8C1492.83 85 1492.96 84.2 1492.96 83.4C1492.96 82.3867 1492.67 81.48 1492.08 80.68C1491.49 79.88 1490.75 79.1867 1489.84 78.6C1488.93 77.96 1487.92 77.4 1486.8 76.92C1485.68 76.3867 1484.56 75.9067 1483.44 75.48C1481.95 74.9467 1480.4 74.3333 1478.8 73.64C1477.2 72.9467 1475.73 72.0667 1474.4 71C1473.12 69.9333 1472.05 68.6267 1471.2 67.08C1470.35 65.48 1469.92 63.5067 1469.92 61.16C1469.92 56.52 1471.41 52.8933 1474.4 50.28C1477.44 47.6667 1481.6 46.36 1486.88 46.36C1489.92 46.36 1492.56 46.7067 1494.8 47.4C1497.09 48.0933 1499.01 48.8667 1500.56 49.72L1497.68 57.32C1496.35 56.5733 1494.85 55.9333 1493.2 55.4C1491.6 54.8667 1489.73 54.6 1487.6 54.6C1482.37 54.6 1479.76 56.4933 1479.76 60.28C1479.76 61.24 1480.03 62.0933 1480.56 62.84C1481.09 63.5333 1481.76 64.1733 1482.56 64.76C1483.41 65.2933 1484.35 65.7733 1485.36 66.2C1486.43 66.6267 1487.47 67.0267 1488.48 67.4C1490.03 67.9867 1491.63 68.6533 1493.28 69.4C1494.99 70.0933 1496.53 71.0533 1497.92 72.28C1499.36 73.4533 1500.53 74.9467 1501.44 76.76C1502.35 78.52 1502.8 80.76 1502.8 83.48C1502.8 88.12 1501.28 91.72 1498.24 94.28C1495.25 96.7867 1490.69 98.04 1484.56 98.04C1480.45 98.04 1477.17 97.6133 1474.72 96.76C1472.27 95.8533 1470.43 95.0267 1469.2 94.28L1472.08 86.28C1473.52 87.1333 1475.23 87.9333 1477.2 88.68C1479.23 89.4267 1481.68 89.8 1484.56 89.8ZM1543.76 78.12C1543.76 81.1067 1543.33 83.8267 1542.48 86.28C1541.63 88.68 1540.43 90.76 1538.88 92.52C1537.33 94.28 1535.47 95.64 1533.28 96.6C1531.15 97.56 1528.75 98.04 1526.08 98.04C1523.41 98.04 1520.99 97.56 1518.8 96.6C1516.67 95.64 1514.8 94.28 1513.2 92.52C1511.65 90.76 1510.45 88.68 1509.6 86.28C1508.75 83.8267 1508.32 81.1067 1508.32 78.12C1508.32 75.1867 1508.75 72.52 1509.6 70.12C1510.51 67.6667 1511.73 65.5867 1513.28 63.88C1514.88 62.12 1516.77 60.7867 1518.96 59.88C1521.15 58.92 1523.52 58.44 1526.08 58.44C1528.69 58.44 1531.07 58.92 1533.2 59.88C1535.39 60.7867 1537.25 62.12 1538.8 63.88C1540.4 65.5867 1541.63 67.6667 1542.48 70.12C1543.33 72.52 1543.76 75.1867 1543.76 78.12ZM1518.32 78.2C1518.32 81.56 1518.91 84.28 1520.08 86.36C1521.31 88.44 1523.25 89.48 1525.92 89.48C1528.48 89.48 1530.4 88.44 1531.68 86.36C1533.01 84.28 1533.68 81.56 1533.68 78.2C1533.68 74.84 1533.07 72.1467 1531.84 70.12C1530.67 68.04 1528.75 67 1526.08 67C1523.52 67 1521.57 68.04 1520.24 70.12C1518.96 72.1467 1518.32 74.84 1518.32 78.2ZM1557.12 97V67.56H1548.88V59.4H1557.12V57.24C1557.12 54.2 1557.55 51.6933 1558.4 49.72C1559.31 47.6933 1560.51 46.0933 1562 44.92C1563.49 43.6933 1565.2 42.84 1567.12 42.36C1569.04 41.8267 1571.01 41.56 1573.04 41.56C1575.12 41.56 1577.25 41.7467 1579.44 42.12C1581.63 42.4933 1583.6 43.1067 1585.36 43.96L1583.68 51.96C1582.45 51.5333 1580.91 51.1067 1579.04 50.68C1577.23 50.2 1575.49 49.96 1573.84 49.96C1572.93 49.96 1572.05 50.04 1571.2 50.2C1570.4 50.36 1569.68 50.7067 1569.04 51.24C1568.45 51.7733 1567.97 52.5467 1567.6 53.56C1567.23 54.52 1567.04 55.8 1567.04 57.4V59.4H1582.48V67.56H1567.04V97H1557.12ZM1597.44 67.56H1588.88V59.4H1597.44V49.96L1607.28 48.36V59.4H1623.04V67.56H1607.28V82.76C1607.28 84.1467 1607.41 85.2667 1607.68 86.12C1607.95 86.9733 1608.32 87.64 1608.8 88.12C1609.28 88.6 1609.87 88.92 1610.56 89.08C1611.25 89.24 1612.03 89.32 1612.88 89.32C1613.79 89.32 1614.61 89.2933 1615.36 89.24C1616.16 89.1867 1616.91 89.1067 1617.6 89C1618.35 88.84 1619.09 88.6267 1619.84 88.36C1620.64 88.0933 1621.49 87.7467 1622.4 87.32L1623.76 95.8C1621.95 96.5467 1619.97 97.08 1617.84 97.4C1615.76 97.72 1613.73 97.88 1611.76 97.88C1609.47 97.88 1607.44 97.6933 1605.68 97.32C1603.92 96.9467 1602.43 96.2267 1601.2 95.16C1599.97 94.0933 1599.04 92.6 1598.4 90.68C1597.76 88.7067 1597.44 86.1467 1597.44 83V67.56ZM1651.76 97C1651.17 95.3467 1650.61 93.8267 1650.08 92.44C1649.6 91.0533 1649.12 89.72 1648.64 88.44C1648.21 87.1067 1647.76 85.7467 1647.28 84.36C1646.85 82.92 1646.4 81.3467 1645.92 79.64C1645.39 81.3467 1644.91 82.8933 1644.48 84.28C1644.05 85.6133 1643.6 86.9467 1643.12 88.28C1642.69 89.6133 1642.24 90.9733 1641.76 92.36C1641.28 93.7467 1640.69 95.2933 1640 97H1632.56C1631.92 94.6533 1631.31 92.0667 1630.72 89.24C1630.19 86.36 1629.68 83.32 1629.2 80.12C1628.72 76.8667 1628.29 73.5067 1627.92 70.04C1627.55 66.5733 1627.2 63.0267 1626.88 59.4H1635.28C1635.49 64.04 1635.71 68.5733 1635.92 73C1636.19 77.4267 1636.64 81.9867 1637.28 86.68C1637.97 84.6533 1638.56 82.7867 1639.04 81.08C1639.57 79.32 1640.03 77.6667 1640.4 76.12C1640.83 74.52 1641.2 73 1641.52 71.56C1641.89 70.0667 1642.27 68.5467 1642.64 67H1649.76C1650.08 68.5467 1650.4 70.0667 1650.72 71.56C1651.09 73 1651.47 74.52 1651.84 76.12C1652.27 77.6667 1652.69 79.32 1653.12 81.08C1653.6 82.7867 1654.16 84.6533 1654.8 86.68C1655.12 84.2267 1655.39 81.88 1655.6 79.64C1655.81 77.4 1655.97 75.1867 1656.08 73C1656.24 70.76 1656.35 68.5467 1656.4 66.36C1656.51 64.12 1656.61 61.8 1656.72 59.4H1665.12C1664.53 66.7067 1663.71 73.5867 1662.64 80.04C1661.63 86.4933 1660.48 92.1467 1659.2 97H1651.76ZM1686.08 89.96C1687.15 89.96 1688.19 89.96 1689.2 89.96C1690.21 89.9067 1691.09 89.8267 1691.84 89.72V81.08C1691.2 80.9733 1690.43 80.8933 1689.52 80.84C1688.61 80.7333 1687.79 80.68 1687.04 80.68C1686.03 80.68 1685.04 80.76 1684.08 80.92C1683.12 81.0267 1682.27 81.24 1681.52 81.56C1680.83 81.88 1680.27 82.3333 1679.84 82.92C1679.41 83.5067 1679.2 84.28 1679.2 85.24C1679.2 86.9467 1679.84 88.1733 1681.12 88.92C1682.4 89.6133 1684.05 89.96 1686.08 89.96ZM1685.2 58.44C1688.29 58.44 1690.85 58.8133 1692.88 59.56C1694.96 60.2533 1696.61 61.2667 1697.84 62.6C1699.07 63.88 1699.95 65.48 1700.48 67.4C1701.01 69.2667 1701.28 71.3733 1701.28 73.72V96.12C1699.84 96.44 1697.71 96.8133 1694.88 97.24C1692.05 97.6667 1688.88 97.88 1685.36 97.88C1682.96 97.88 1680.77 97.6667 1678.8 97.24C1676.88 96.8133 1675.23 96.12 1673.84 95.16C1672.45 94.1467 1671.39 92.8667 1670.64 91.32C1669.89 89.72 1669.52 87.7733 1669.52 85.48C1669.52 83.2933 1669.95 81.4533 1670.8 79.96C1671.65 78.4667 1672.8 77.2667 1674.24 76.36C1675.68 75.4533 1677.33 74.8133 1679.2 74.44C1681.07 74.0133 1683.01 73.8 1685.04 73.8C1687.6 73.8 1689.87 74.0133 1691.84 74.44V73.24C1691.84 71.3733 1691.25 69.8267 1690.08 68.6C1688.91 67.32 1686.88 66.68 1684 66.68C1682.13 66.68 1680.32 66.8133 1678.56 67.08C1676.85 67.3467 1675.47 67.6667 1674.4 68.04L1673.04 60.12C1674.27 59.6933 1676 59.32 1678.24 59C1680.48 58.6267 1682.8 58.44 1685.2 58.44ZM1740.96 69.4C1740.32 69.24 1739.55 69.08 1738.64 68.92C1737.79 68.76 1736.91 68.6267 1736 68.52C1735.09 68.36 1734.21 68.2533 1733.36 68.2C1732.51 68.1467 1731.79 68.12 1731.2 68.12C1729.81 68.12 1728.45 68.2 1727.12 68.36C1725.79 68.4667 1724.43 68.7067 1723.04 69.08V97H1713.12V61.88C1715.73 60.92 1718.4 60.1467 1721.12 59.56C1723.89 58.9733 1727.12 58.68 1730.8 58.68C1731.33 58.68 1732.08 58.7067 1733.04 58.76C1734.05 58.8133 1735.12 58.92 1736.24 59.08C1737.36 59.1867 1738.48 59.3467 1739.6 59.56C1740.77 59.72 1741.81 59.96 1742.72 60.28L1740.96 69.4ZM1748.48 78.52C1748.48 75.2133 1748.99 72.3067 1750 69.8C1751.01 67.2933 1752.35 65.2133 1754 63.56C1755.65 61.8533 1757.55 60.5733 1759.68 59.72C1761.81 58.8667 1764 58.44 1766.24 58.44C1771.79 58.44 1776 60.0933 1778.88 63.4C1781.76 66.6533 1783.2 71.4267 1783.2 77.72C1783.2 78.36 1783.17 79.0267 1783.12 79.72C1783.12 80.4133 1783.09 80.9733 1783.04 81.4H1758.64C1758.64 83.8533 1759.65 85.8 1761.68 87.24C1763.71 88.6267 1766.32 89.32 1769.52 89.32C1771.49 89.32 1773.36 89.1067 1775.12 88.68C1776.93 88.2533 1778.45 87.8267 1779.68 87.4L1781.04 95.8C1779.33 96.3867 1777.52 96.8667 1775.6 97.24C1773.68 97.6667 1771.52 97.88 1769.12 97.88C1765.92 97.88 1763.04 97.48 1760.48 96.68C1757.97 95.8267 1755.81 94.6 1754 93C1752.24 91.3467 1750.88 89.32 1749.92 86.92C1748.96 84.52 1748.48 81.72 1748.48 78.52ZM1773.68 74.6C1773.68 73.5867 1773.55 72.6267 1773.28 71.72C1773.01 70.76 1772.59 69.9067 1772 69.16C1771.41 68.4133 1770.67 67.8267 1769.76 67.4C1768.85 66.92 1767.73 66.68 1766.4 66.68C1765.12 66.68 1764 66.8933 1763.04 67.32C1762.13 67.7467 1761.36 68.3333 1760.72 69.08C1760.13 69.8267 1759.65 70.68 1759.28 71.64C1758.96 72.6 1758.75 73.5867 1758.64 74.6H1773.68ZM1840.16 89C1840.43 89.0533 1840.72 89.08 1841.04 89.08C1841.36 89.08 1841.65 89.08 1841.92 89.08C1844.16 89.08 1846.03 88.6533 1847.52 87.8C1849.07 86.9467 1850.29 85.7733 1851.2 84.28C1852.16 82.7867 1852.83 81.0267 1853.2 79C1853.63 76.92 1853.84 74.6533 1853.84 72.2C1853.84 70.0667 1853.68 67.9867 1853.36 65.96C1853.04 63.9333 1852.48 62.1467 1851.68 60.6C1850.88 59.0533 1849.79 57.8267 1848.4 56.92C1847.01 55.96 1845.23 55.48 1843.04 55.48C1842.61 55.48 1842.13 55.5067 1841.6 55.56C1841.07 55.56 1840.59 55.6133 1840.16 55.72V89ZM1863.84 72.2C1863.84 76.7867 1863.25 80.7067 1862.08 83.96C1860.96 87.16 1859.39 89.7733 1857.36 91.8C1855.33 93.8267 1852.91 95.32 1850.08 96.28C1847.31 97.1867 1844.24 97.64 1840.88 97.64C1839.12 97.64 1837.39 97.5333 1835.68 97.32C1834.03 97.16 1832.24 96.8667 1830.32 96.44V48.12C1832.56 47.64 1834.67 47.32 1836.64 47.16C1838.61 47 1840.45 46.92 1842.16 46.92C1845.41 46.92 1848.37 47.4 1851.04 48.36C1853.76 49.32 1856.05 50.84 1857.92 52.92C1859.79 54.9467 1861.23 57.56 1862.24 60.76C1863.31 63.9067 1863.84 67.72 1863.84 72.2ZM1868.48 78.52C1868.48 75.2133 1868.99 72.3067 1870 69.8C1871.01 67.2933 1872.35 65.2133 1874 63.56C1875.65 61.8533 1877.55 60.5733 1879.68 59.72C1881.81 58.8667 1884 58.44 1886.24 58.44C1891.79 58.44 1896 60.0933 1898.88 63.4C1901.76 66.6533 1903.2 71.4267 1903.2 77.72C1903.2 78.36 1903.17 79.0267 1903.12 79.72C1903.12 80.4133 1903.09 80.9733 1903.04 81.4H1878.64C1878.64 83.8533 1879.65 85.8 1881.68 87.24C1883.71 88.6267 1886.32 89.32 1889.52 89.32C1891.49 89.32 1893.36 89.1067 1895.12 88.68C1896.93 88.2533 1898.45 87.8267 1899.68 87.4L1901.04 95.8C1899.33 96.3867 1897.52 96.8667 1895.6 97.24C1893.68 97.6667 1891.52 97.88 1889.12 97.88C1885.92 97.88 1883.04 97.48 1880.48 96.68C1877.97 95.8267 1875.81 94.6 1874 93C1872.24 91.3467 1870.88 89.32 1869.92 86.92C1868.96 84.52 1868.48 81.72 1868.48 78.52ZM1893.68 74.6C1893.68 73.5867 1893.55 72.6267 1893.28 71.72C1893.01 70.76 1892.59 69.9067 1892 69.16C1891.41 68.4133 1890.67 67.8267 1889.76 67.4C1888.85 66.92 1887.73 66.68 1886.4 66.68C1885.12 66.68 1884 66.8933 1883.04 67.32C1882.13 67.7467 1881.36 68.3333 1880.72 69.08C1880.13 69.8267 1879.65 70.68 1879.28 71.64C1878.96 72.6 1878.75 73.5867 1878.64 74.6H1893.68ZM1921.52 97C1919.12 92.2533 1916.67 86.7067 1914.16 80.36C1911.71 73.96 1909.36 66.9733 1907.12 59.4H1917.44C1917.92 61.4267 1918.48 63.5867 1919.12 65.88C1919.81 68.1733 1920.53 70.4933 1921.28 72.84C1922.03 75.1333 1922.77 77.3733 1923.52 79.56C1924.32 81.7467 1925.07 83.7467 1925.76 85.56C1926.45 83.7467 1927.23 81.7467 1928.08 79.56C1928.93 77.3733 1929.76 75.1333 1930.56 72.84C1931.41 70.4933 1932.21 68.1733 1932.96 65.88C1933.76 63.5867 1934.4 61.4267 1934.88 59.4H1944.88C1942.64 66.9733 1940.16 73.96 1937.44 80.36C1934.72 86.7067 1932.16 92.2533 1929.76 97H1921.52ZM1948.48 78.52C1948.48 75.2133 1948.99 72.3067 1950 69.8C1951.01 67.2933 1952.35 65.2133 1954 63.56C1955.65 61.8533 1957.55 60.5733 1959.68 59.72C1961.81 58.8667 1964 58.44 1966.24 58.44C1971.79 58.44 1976 60.0933 1978.88 63.4C1981.76 66.6533 1983.2 71.4267 1983.2 77.72C1983.2 78.36 1983.17 79.0267 1983.12 79.72C1983.12 80.4133 1983.09 80.9733 1983.04 81.4H1958.64C1958.64 83.8533 1959.65 85.8 1961.68 87.24C1963.71 88.6267 1966.32 89.32 1969.52 89.32C1971.49 89.32 1973.36 89.1067 1975.12 88.68C1976.93 88.2533 1978.45 87.8267 1979.68 87.4L1981.04 95.8C1979.33 96.3867 1977.52 96.8667 1975.6 97.24C1973.68 97.6667 1971.52 97.88 1969.12 97.88C1965.92 97.88 1963.04 97.48 1960.48 96.68C1957.97 95.8267 1955.81 94.6 1954 93C1952.24 91.3467 1950.88 89.32 1949.92 86.92C1948.96 84.52 1948.48 81.72 1948.48 78.52ZM1973.68 74.6C1973.68 73.5867 1973.55 72.6267 1973.28 71.72C1973.01 70.76 1972.59 69.9067 1972 69.16C1971.41 68.4133 1970.67 67.8267 1969.76 67.4C1968.85 66.92 1967.73 66.68 1966.4 66.68C1965.12 66.68 1964 66.8933 1963.04 67.32C1962.13 67.7467 1961.36 68.3333 1960.72 69.08C1960.13 69.8267 1959.65 70.68 1959.28 71.64C1958.96 72.6 1958.75 73.5867 1958.64 74.6H1973.68ZM2023.36 95.4C2023.2 95.5067 2022.83 95.6933 2022.24 95.96C2021.71 96.2267 2020.99 96.52 2020.08 96.84C2019.17 97.1067 2018.05 97.3467 2016.72 97.56C2015.44 97.7733 2013.97 97.88 2012.32 97.88C2007.79 97.88 2004.48 96.5467 2002.4 93.88C2000.32 91.16 1999.28 87.2133 1999.28 82.04V50.12H1988.88V41.96H2009.12V82.76C2009.12 85.32 2009.63 87.0533 2010.64 87.96C2011.65 88.8667 2012.93 89.32 2014.48 89.32C2016.45 89.32 2018.11 89.0533 2019.44 88.52C2020.77 87.9867 2021.65 87.64 2022.08 87.48L2023.36 95.4ZM2063.76 78.12C2063.76 81.1067 2063.33 83.8267 2062.48 86.28C2061.63 88.68 2060.43 90.76 2058.88 92.52C2057.33 94.28 2055.47 95.64 2053.28 96.6C2051.15 97.56 2048.75 98.04 2046.08 98.04C2043.41 98.04 2040.99 97.56 2038.8 96.6C2036.67 95.64 2034.8 94.28 2033.2 92.52C2031.65 90.76 2030.45 88.68 2029.6 86.28C2028.75 83.8267 2028.32 81.1067 2028.32 78.12C2028.32 75.1867 2028.75 72.52 2029.6 70.12C2030.51 67.6667 2031.73 65.5867 2033.28 63.88C2034.88 62.12 2036.77 60.7867 2038.96 59.88C2041.15 58.92 2043.52 58.44 2046.08 58.44C2048.69 58.44 2051.07 58.92 2053.2 59.88C2055.39 60.7867 2057.25 62.12 2058.8 63.88C2060.4 65.5867 2061.63 67.6667 2062.48 70.12C2063.33 72.52 2063.76 75.1867 2063.76 78.12ZM2038.32 78.2C2038.32 81.56 2038.91 84.28 2040.08 86.36C2041.31 88.44 2043.25 89.48 2045.92 89.48C2048.48 89.48 2050.4 88.44 2051.68 86.36C2053.01 84.28 2053.68 81.56 2053.68 78.2C2053.68 74.84 2053.07 72.1467 2051.84 70.12C2050.67 68.04 2048.75 67 2046.08 67C2043.52 67 2041.57 68.04 2040.24 70.12C2038.96 72.1467 2038.32 74.84 2038.32 78.2ZM2093.52 78.52C2093.52 75.16 2092.85 72.4133 2091.52 70.28C2090.19 68.0933 2088.16 67 2085.44 67C2084.69 67 2083.89 67.0533 2083.04 67.16C2082.19 67.2133 2081.47 67.2667 2080.88 67.32V87.96C2081.52 88.3867 2082.37 88.7333 2083.44 89C2084.51 89.2667 2085.57 89.4 2086.64 89.4C2088.99 89.4 2090.72 88.4667 2091.84 86.6C2092.96 84.68 2093.52 81.9867 2093.52 78.52ZM2103.52 78.2C2103.52 81.08 2103.2 83.7467 2102.56 86.2C2101.92 88.6 2100.99 90.68 2099.76 92.44C2098.53 94.1467 2096.99 95.48 2095.12 96.44C2093.25 97.4 2091.09 97.88 2088.64 97.88C2086.13 97.88 2083.55 97.2667 2080.88 96.04V110.2H2071.04V60.6C2072.85 60.0133 2075.07 59.5333 2077.68 59.16C2080.35 58.7867 2082.96 58.6 2085.52 58.6C2091.33 58.6 2095.79 60.36 2098.88 63.88C2101.97 67.4 2103.52 72.1733 2103.52 78.2ZM2108.48 78.52C2108.48 75.2133 2108.99 72.3067 2110 69.8C2111.01 67.2933 2112.35 65.2133 2114 63.56C2115.65 61.8533 2117.55 60.5733 2119.68 59.72C2121.81 58.8667 2124 58.44 2126.24 58.44C2131.79 58.44 2136 60.0933 2138.88 63.4C2141.76 66.6533 2143.2 71.4267 2143.2 77.72C2143.2 78.36 2143.17 79.0267 2143.12 79.72C2143.12 80.4133 2143.09 80.9733 2143.04 81.4H2118.64C2118.64 83.8533 2119.65 85.8 2121.68 87.24C2123.71 88.6267 2126.32 89.32 2129.52 89.32C2131.49 89.32 2133.36 89.1067 2135.12 88.68C2136.93 88.2533 2138.45 87.8267 2139.68 87.4L2141.04 95.8C2139.33 96.3867 2137.52 96.8667 2135.6 97.24C2133.68 97.6667 2131.52 97.88 2129.12 97.88C2125.92 97.88 2123.04 97.48 2120.48 96.68C2117.97 95.8267 2115.81 94.6 2114 93C2112.24 91.3467 2110.88 89.32 2109.92 86.92C2108.96 84.52 2108.48 81.72 2108.48 78.52ZM2133.68 74.6C2133.68 73.5867 2133.55 72.6267 2133.28 71.72C2133.01 70.76 2132.59 69.9067 2132 69.16C2131.41 68.4133 2130.67 67.8267 2129.76 67.4C2128.85 66.92 2127.73 66.68 2126.4 66.68C2125.12 66.68 2124 66.8933 2123.04 67.32C2122.13 67.7467 2121.36 68.3333 2120.72 69.08C2120.13 69.8267 2119.65 70.68 2119.28 71.64C2118.96 72.6 2118.75 73.5867 2118.64 74.6H2133.68ZM2180.96 69.4C2180.32 69.24 2179.55 69.08 2178.64 68.92C2177.79 68.76 2176.91 68.6267 2176 68.52C2175.09 68.36 2174.21 68.2533 2173.36 68.2C2172.51 68.1467 2171.79 68.12 2171.2 68.12C2169.81 68.12 2168.45 68.2 2167.12 68.36C2165.79 68.4667 2164.43 68.7067 2163.04 69.08V97H2153.12V61.88C2155.73 60.92 2158.4 60.1467 2161.12 59.56C2163.89 58.9733 2167.12 58.68 2170.8 58.68C2171.33 58.68 2172.08 58.7067 2173.04 58.76C2174.05 58.8133 2175.12 58.92 2176.24 59.08C2177.36 59.1867 2178.48 59.3467 2179.6 59.56C2180.77 59.72 2181.81 59.96 2182.72 60.28L2180.96 69.4Z" fill="#3D3B3B"></path>
  </g>
  <defs>
    <filter id="d2e1d4d5" x="3399.6" y="5.6" width="256.8" height="247.8" filterUnits="userSpaceOnUse" color-interpolation-filters="sRGB">
      <feFlood flood-opacity="0" result="BackgroundImageFix"></feFlood>
      <feColorMatrix in="SourceAlpha" type="matrix" values="0 0 0 0 0 0 0 0 0 0 0 0 0 0 0 0 0 0 127 0" result="hardAlpha"></feColorMatrix>
      <feOffset></feOffset>
      <feGaussianBlur stdDeviation="1.35"></feGaussianBlur>
      <feColorMatrix type="matrix" values="0 0 0 0 0.996078 0 0 0 0 0.843137 0 0 0 0 0.611765 0 0 0 1 0"></feColorMatrix>
      <feBlend mode="normal" in2="BackgroundImageFix" result="effect1_dropShadow_17_374"></feBlend>
      <feColorMatrix in="SourceAlpha" type="matrix" values="0 0 0 0 0 0 0 0 0 0 0 0 0 0 0 0 0 0 127 0" result="hardAlpha"></feColorMatrix>
      <feOffset></feOffset>
      <feGaussianBlur stdDeviation="2.7"></feGaussianBlur>
      <feColorMatrix type="matrix" values="0 0 0 0 0.996078 0 0 0 0 0.843137 0 0 0 0 0.611765 0 0 0 1 0"></feColorMatrix>
      <feBlend mode="normal" in2="effect1_dropShadow_17_374" result="effect2_dropShadow_17_374"></feBlend>
      <feColorMatrix in="SourceAlpha" type="matrix" values="0 0 0 0 0 0 0 0 0 0 0 0 0 0 0 0 0 0 127 0" result="hardAlpha"></feColorMatrix>
      <feOffset></feOffset>
      <feGaussianBlur stdDeviation="9.45"></feGaussianBlur>
      <feColorMatrix type="matrix" values="0 0 0 0 0.996078 0 0 0 0 0.843137 0 0 0 0 0.611765 0 0 0 1 0"></feColorMatrix>
      <feBlend mode="normal" in2="effect2_dropShadow_17_374" result="effect3_dropShadow_17_374"></feBlend>
      <feColorMatrix in="SourceAlpha" type="matrix" values="0 0 0 0 0 0 0 0 0 0 0 0 0 0 0 0 0 0 127 0" result="hardAlpha"></feColorMatrix>
      <feOffset></feOffset>
      <feGaussianBlur stdDeviation="18.9"></feGaussianBlur>
      <feColorMatrix type="matrix" values="0 0 0 0 0.996078 0 0 0 0 0.843137 0 0 0 0 0.611765 0 0 0 1 0"></feColorMatrix>
      <feBlend mode="normal" in2="effect3_dropShadow_17_374" result="effect4_dropShadow_17_374"></feBlend>
      <feColorMatrix in="SourceAlpha" type="matrix" values="0 0 0 0 0 0 0 0 0 0 0 0 0 0 0 0 0 0 127 0" result="hardAlpha"></feColorMatrix>
      <feOffset></feOffset>
      <feGaussianBlur stdDeviation="32.4"></feGaussianBlur>
      <feColorMatrix type="matrix" values="0 0 0 0 0.996078 0 0 0 0 0.843137 0 0 0 0 0.611765 0 0 0 1 0"></feColorMatrix>
      <feBlend mode="normal" in2="effect4_dropShadow_17_374" result="effect5_dropShadow_17_374"></feBlend>
      <feColorMatrix in="SourceAlpha" type="matrix" values="0 0 0 0 0 0 0 0 0 0 0 0 0 0 0 0 0 0 127 0" result="hardAlpha"></feColorMatrix>
      <feOffset></feOffset>
      <feGaussianBlur stdDeviation="56.7"></feGaussianBlur>
      <feColorMatrix type="matrix" values="0 0 0 0 0.996078 0 0 0 0 0.843137 0 0 0 0 0.611765 0 0 0 1 0"></feColorMatrix>
      <feBlend mode="normal" in2="effect5_dropShadow_17_374" result="effect6_dropShadow_17_374"></feBlend>
      <feBlend mode="normal" in="SourceGraphic" in2="effect6_dropShadow_17_374" result="shape"></feBlend>
    </filter>
    <filter id="f8b35122" x="0.0999985" y="5.6" width="256.8" height="247.8" filterUnits="userSpaceOnUse" color-interpolation-filters="sRGB">
      <feFlood flood-opacity="0" result="BackgroundImageFix"></feFlood>
      <feColorMatrix in="SourceAlpha" type="matrix" values="0 0 0 0 0 0 0 0 0 0 0 0 0 0 0 0 0 0 127 0" result="hardAlpha"></feColorMatrix>
      <feOffset></feOffset>
      <feGaussianBlur stdDeviation="1.35"></feGaussianBlur>
      <feColorMatrix type="matrix" values="0 0 0 0 0.988235 0 0 0 0 0.435294 0 0 0 0 0.313726 0 0 0 1 0"></feColorMatrix>
      <feBlend mode="normal" in2="BackgroundImageFix" result="effect1_dropShadow_17_374"></feBlend>
      <feColorMatrix in="SourceAlpha" type="matrix" values="0 0 0 0 0 0 0 0 0 0 0 0 0 0 0 0 0 0 127 0" result="hardAlpha"></feColorMatrix>
      <feOffset></feOffset>
      <feGaussianBlur stdDeviation="2.7"></feGaussianBlur>
      <feColorMatrix type="matrix" values="0 0 0 0 0.988235 0 0 0 0 0.435294 0 0 0 0 0.313726 0 0 0 1 0"></feColorMatrix>
      <feBlend mode="normal" in2="effect1_dropShadow_17_374" result="effect2_dropShadow_17_374"></feBlend>
      <feColorMatrix in="SourceAlpha" type="matrix" values="0 0 0 0 0 0 0 0 0 0 0 0 0 0 0 0 0 0 127 0" result="hardAlpha"></feColorMatrix>
      <feOffset></feOffset>
      <feGaussianBlur stdDeviation="9.45"></feGaussianBlur>
      <feColorMatrix type="matrix" values="0 0 0 0 0.988235 0 0 0 0 0.435294 0 0 0 0 0.313726 0 0 0 1 0"></feColorMatrix>
      <feBlend mode="normal" in2="effect2_dropShadow_17_374" result="effect3_dropShadow_17_374"></feBlend>
      <feColorMatrix in="SourceAlpha" type="matrix" values="0 0 0 0 0 0 0 0 0 0 0 0 0 0 0 0 0 0 127 0" result="hardAlpha"></feColorMatrix>
      <feOffset></feOffset>
      <feGaussianBlur stdDeviation="18.9"></feGaussianBlur>
      <feColorMatrix type="matrix" values="0 0 0 0 0.988235 0 0 0 0 0.435294 0 0 0 0 0.313726 0 0 0 1 0"></feColorMatrix>
      <feBlend mode="normal" in2="effect3_dropShadow_17_374" result="effect4_dropShadow_17_374"></feBlend>
      <feColorMatrix in="SourceAlpha" type="matrix" values="0 0 0 0 0 0 0 0 0 0 0 0 0 0 0 0 0 0 127 0" result="hardAlpha"></feColorMatrix>
      <feOffset></feOffset>
      <feGaussianBlur stdDeviation="32.4"></feGaussianBlur>
      <feColorMatrix type="matrix" values="0 0 0 0 0.988235 0 0 0 0 0.435294 0 0 0 0 0.313726 0 0 0 1 0"></feColorMatrix>
      <feBlend mode="normal" in2="effect4_dropShadow_17_374" result="effect5_dropShadow_17_374"></feBlend>
      <feColorMatrix in="SourceAlpha" type="matrix" values="0 0 0 0 0 0 0 0 0 0 0 0 0 0 0 0 0 0 127 0" result="hardAlpha"></feColorMatrix>
      <feOffset></feOffset>
      <feGaussianBlur stdDeviation="56.7"></feGaussianBlur>
      <feColorMatrix type="matrix" values="0 0 0 0 0.988235 0 0 0 0 0.435294 0 0 0 0 0.313726 0 0 0 1 0"></feColorMatrix>
      <feBlend mode="normal" in2="effect5_dropShadow_17_374" result="effect6_dropShadow_17_374"></feBlend>
      <feBlend mode="normal" in="SourceGraphic" in2="effect6_dropShadow_17_374" result="shape"></feBlend>
    </filter>
  </defs>
</svg>